HIERARCHY
ROOT Hips
{
	OFFSET 0.00000 0.00000 0.00000
	CHANNELS 6 Xposition Yposition Zposition Zrotation Yrotation Xrotation 
	JOINT LHipJoint
	{
		OFFSET 0 0 0
		CHANNELS 3 Zrotation Yrotation Xrotation
		JOINT LeftHip
		{
			OFFSET 1.84395 -1.68683 0.74144
			CHANNELS 3 Zrotation Yrotation Xrotation
			JOINT LeftKnee
			{
				OFFSET 2.27037 -6.23779 0.00000
				CHANNELS 3 Zrotation Yrotation Xrotation
				JOINT LeftAnkle
				{
					OFFSET 2.56918 -7.05877 0.00000
					CHANNELS 3 Zrotation Yrotation Xrotation
					JOINT LeftToe
					{
						OFFSET 0.22276 -0.61202 1.71784
						CHANNELS 3 Zrotation Yrotation Xrotation
						End Site
						{
							OFFSET 0.00000 -0.00000 0.91613
						}
					}
				}
			}
		}
	}
	JOINT RHipJoint
	{
		OFFSET 0 0 0
		CHANNELS 3 Zrotation Yrotation Xrotation
		JOINT RightHip
		{
			OFFSET -1.76833 -1.68684 0.74144
			CHANNELS 3 Zrotation Yrotation Xrotation
			JOINT RightKnee
			{
				OFFSET -2.49360 -6.85110 0.00000
				CHANNELS 3 Zrotation Yrotation Xrotation
				JOINT RightAnkle
				{
					OFFSET -2.55538 -7.02085 0.00000
					CHANNELS 3 Zrotation Yrotation Xrotation
					JOINT RightToe
					{
						OFFSET -0.21516 -0.59115 1.68050
						CHANNELS 3 Zrotation Yrotation Xrotation
						End Site
						{
							OFFSET -0.00000 -0.00000 0.89604
						}
					}
				}
			}
		}
	}
	JOINT lowerback
	{
		OFFSET 0 0 0
		CHANNELS 3 Zrotation Yrotation Xrotation
		JOINT Chest
		{
			OFFSET 0.06382 1.72312 -0.19613
			CHANNELS 3 Zrotation Yrotation Xrotation
			JOINT Chest2
			{
				OFFSET -0.00055 1.73507 0.23859
				CHANNELS 3 Zrotation Yrotation Xrotation
				JOINT lowerneck
				{
					OFFSET 0 0 0
					CHANNELS 3 Zrotation Yrotation Xrotation
					JOINT Neck
					{
						OFFSET 0.03638 1.65562 0.09633
						CHANNELS 3 Zrotation Yrotation Xrotation
						JOINT Head
						{
							OFFSET 0.06388 1.62807 -0.32386
							CHANNELS 3 Zrotation Yrotation Xrotation
							End Site
							{
								OFFSET 0.00995 1.67644 -0.12021
							}
						}
					}
				}
				JOINT LeftCollar
				{
					OFFSET 0 0 0
					CHANNELS 3 Zrotation Yrotation Xrotation
					JOINT LeftShoulder
					{
						OFFSET 3.09648 1.42991 0.28122
CHANNELS 3 Zrotation Xrotation Yrotation
						JOINT LeftElbow
						{
OFFSET 0 -5.118780 -0.000000
CHANNELS 3 Zrotation Xrotation Yrotation
							JOINT LeftWrist
							{
OFFSET 0 -3.599710 0.000000
CHANNELS 3 Zrotation Xrotation Yrotation
								JOINT lhand
								{
									OFFSET 0 0 0
CHANNELS 3 Zrotation Xrotation Yrotation
									JOINT LFingers
									{
OFFSET 0 -0.628770 0.000000
CHANNELS 3 Zrotation Xrotation Yrotation
										End Site
										{
OFFSET 0 -0.506930 0.000000
										}
									}
								}
								JOINT LThumb
								{
OFFSET 0 0.000000 0.000000
CHANNELS 3 Zrotation Xrotation Yrotation
									End Site
									{
OFFSET 0 -0.514670 0.514670
									}
								}
							}
						}
					}
				}
				JOINT RightCollar
				{
					OFFSET 0 0 0
					CHANNELS 3 Zrotation Yrotation Xrotation
					JOINT RightShoulder
					{
						OFFSET -3.33565 1.14597 0.05047
CHANNELS 3 Zrotation Xrotation Yrotation
						JOINT RightElbow
						{
OFFSET 0 -5.490200 0.000000
CHANNELS 3 Zrotation Xrotation Yrotation
							JOINT RightWrist
							{
OFFSET 0 -3.206590 -0.000000
CHANNELS 3 Zrotation Xrotation Yrotation
								JOINT rhand
								{
									OFFSET 0 0 0
CHANNELS 3 Zrotation Xrotation Yrotation
									JOINT RFingers
									{
OFFSET 0 -0.691880 0.000000
CHANNELS 3 Zrotation Xrotation Yrotation
										End Site
										{
OFFSET 0 -0.557810 0.000000
										}
									}
								}
								JOINT RThumb
								{
OFFSET 0 0.000000 0.000000
CHANNELS 3 Zrotation Xrotation Yrotation
									End Site
									{
OFFSET 0 -0.566330 0.566330
									}
								}
							}
						}
					}
				}
			}
		}
	}
}
MOTION
Frames: 7
Frame Time: 0.008333333333333333
0.085585 17.719601 7.818977 -9.728435 -25.284297 27.364362 0.000000 0.000000 0.000000 -5.046707 -37.776503 -0.066987 0.014703 -0.784161 -2.155266 6.053428 39.357379 -67.541053 3.751923 11.822792 35.107922 0.000000 0.000000 0.000000 13.416739 36.928660 -24.170761 -0.334203 -3.715318 10.276951 0.070596 -6.762200 -7.634495 -0.283041 3.421330 -9.454090 4.365613 -1.106627 15.492698 4.953613 -1.076614 9.396326 2.899175 -0.592516 1.340261 -13.287137 -18.050393 10.033291 19.224178 -27.110950 12.698347 6.494557 -13.470798 6.797235 0.000000 0.000000 0.000000 13.658478 -18.392076 -80.484386 103.952050 -59.251581 72.052456 15.856582 -31.722081 0.802300 0.000000 0.000000 0.000000 -7.125000 0.000000 0.000000 -8.352006 29.100439 -3.267292 0.000000 0.000000 0.000000 -100.044694 -71.123264 16.117378 -21.426244 -32.321730 -6.276706 79.902534 -86.009026 28.602705 0.000000 0.000000 0.000000 7.125000 0.000000 0.000000 70.306362 43.620397 6.083560
0.074506 17.718300 7.809728 -10.119044 -24.533653 27.394064 0.000000 0.000000 0.000000 -4.660620 -39.429450 0.869897 0.017826 -0.861943 -2.368971 6.775396 39.697104 -69.111012 3.828139 11.928210 35.478368 0.000000 0.000000 0.000000 14.120320 36.685830 -24.007395 -0.335946 -3.724754 10.303611 0.070090 -6.843898 -7.800148 -0.235438 3.122848 -8.620991 3.950772 -1.340052 15.717267 5.283183 -1.407817 9.353871 3.537021 -0.786225 1.202489 -13.835110 -18.086692 10.047467 18.666876 -27.172203 13.038441 6.368037 -13.518643 6.909675 0.000000 0.000000 0.000000 13.650615 -17.568469 -79.594421 103.855363 -59.262098 71.969321 15.847021 -31.899945 0.338005 0.000000 0.000000 0.000000 -7.125000 0.000000 0.000000 -8.398683 29.577339 -3.188214 0.000000 0.000000 0.000000 -101.136201 -69.402530 22.827130 -28.182001 -39.280946 -10.239549 82.057550 -98.754496 26.569684 0.000000 0.000000 0.000000 7.125000 0.000000 0.000000 64.889343 41.053485 14.680295
0.061623 17.720407 7.802810 -10.378871 -24.073866 27.474418 0.000000 0.000000 0.000000 -4.547271 -41.451811 2.018323 0.021027 -0.936798 -2.575036 8.262941 39.643474 -71.718243 4.034766 12.206532 36.466506 0.000000 0.000000 0.000000 14.511130 36.611976 -24.031771 -0.340544 -3.749695 10.373524 0.068896 -6.891529 -7.926027 -0.202272 2.895959 -7.989188 3.554977 -1.549693 15.790964 5.302622 -1.717854 9.314627 3.828851 -0.956352 1.142433 -13.995764 -18.239128 9.927680 18.000509 -27.277742 13.056526 6.150482 -13.583500 6.876458 0.000000 0.000000 0.000000 14.232834 -16.554670 -79.196144 103.925022 -59.254473 72.029219 16.920548 -34.485514 2.321766 0.000000 0.000000 0.000000 -7.125000 0.000000 0.000000 -7.424359 27.530024 -3.176768 0.000000 0.000000 0.000000 -107.081986 -67.816647 24.823641 -37.894139 -46.766743 -16.889848 84.273264 -110.561611 22.945696 0.000000 0.000000 0.000000 7.125000 0.000000 0.000000 56.040265 34.684116 28.651996
0.043552 17.719949 7.796125 -10.601241 -23.951740 27.484983 0.000000 0.000000 0.000000 -4.660421 -42.742629 2.963950 0.020565 -0.925082 -2.542776 9.472907 39.484106 -73.701786 4.176153 12.391149 37.130125 0.000000 0.000000 0.000000 14.925115 36.548949 -23.971490 -0.349161 -3.796713 10.505379 0.050618 -6.617497 -8.031245 -0.149474 2.491558 -6.866207 3.315921 -1.605906 15.865402 5.072896 -1.814182 9.313341 3.735461 -1.005736 1.101810 -14.945137 -18.003865 10.338789 19.149235 -27.162462 12.402173 6.673874 -13.601856 6.883466 0.000000 0.000000 0.000000 15.053212 -16.100189 -78.979355 103.649707 -59.284157 71.792543 16.190754 -34.408651 1.953933 0.000000 0.000000 0.000000 -7.125000 0.000000 0.000000 -8.007684 27.914458 -3.357392 0.000000 0.000000 0.000000 -109.599287 -66.091716 24.891522 -52.021998 -53.766151 -27.800502 86.037963 -120.802821 22.736685 0.000000 0.000000 0.000000 7.125000 0.000000 0.000000 57.100857 35.707295 26.637483
0.034787 17.721020 7.791522 -10.658420 -23.913282 27.553303 0.000000 0.000000 0.000000 -4.393585 -42.373594 2.670662 0.021388 -0.944348 -2.595791 9.168538 39.548669 -73.219780 4.148979 12.356077 37.003367 0.000000 0.000000 0.000000 15.059678 36.366638 -24.033344 -0.345298 -3.775665 10.446404 0.044446 -6.421767 -7.896778 -0.141949 2.427767 -6.689316 2.649977 -1.589976 16.136977 5.094369 -1.848395 9.163847 4.151977 -1.047499 0.819214 -15.589827 -18.144906 10.229327 18.409505 -27.236708 12.171177 6.491796 -13.671438 6.819945 0.000000 0.000000 0.000000 15.330059 -15.681778 -78.840830 103.516397 -59.298343 71.677996 19.233883 -35.209288 4.516917 0.000000 0.000000 0.000000 -7.125000 0.000000 0.000000 -5.573445 25.195003 -2.682506 0.000000 0.000000 0.000000 -114.808946 -64.157731 23.062043 -73.613583 -58.942695 -45.860571 86.552480 -132.501878 26.462354 0.000000 0.000000 0.000000 7.125000 0.000000 0.000000 69.036682 42.915622 8.552890
0.014845 17.728391 7.792388 -10.679652 -23.559801 27.547382 0.000000 0.000000 0.000000 -4.279340 -42.922872 2.948704 0.023093 -0.980363 -2.694790 9.475448 39.473651 -73.700895 4.205165 12.428431 37.265082 0.000000 0.000000 0.000000 15.227952 36.317274 -23.930943 -0.341356 -3.754465 10.386854 0.053822 -6.660470 -8.002154 -0.121693 2.248634 -6.193309 2.489559 -1.508800 16.260709 4.922352 -1.751292 9.128444 4.049282 -0.997450 0.707836 -15.628334 -18.405674 10.832691 17.886301 -27.458291 11.625905 6.377983 -13.836285 6.516969 0.000000 0.000000 0.000000 15.794264 -15.619877 -79.177542 103.638070 -59.285439 71.782596 20.191866 -35.791842 5.992889 0.000000 0.000000 0.000000 -7.125000 0.000000 0.000000 -4.833254 23.599996 -2.498424 0.000000 0.000000 0.000000 -118.916210 -61.678553 22.258886 -96.787926 -59.811465 -65.874063 88.090850 -135.912355 19.625594 0.000000 0.000000 0.000000 7.125000 0.000000 0.000000 52.465464 31.229984 33.289013
-0.001873 17.731922 7.794565 -10.851617 -22.933100 27.638931 0.000000 0.000000 0.000000 -3.787322 -43.474715 2.960740 0.022969 -0.978732 -2.690350 9.589235 39.475128 -73.893262 4.191060 12.410454 37.199788 0.000000 0.000000 0.000000 15.612665 36.059816 -23.941071 -0.341287 -3.754243 10.386159 0.059365 -6.797985 -8.066398 -0.123616 2.266091 -6.241661 2.449232 -1.640013 16.454809 4.976218 -1.908881 9.080996 4.162073 -1.077605 0.568345 -15.684436 -18.639739 10.930409 17.258012 -27.615290 11.157225 6.192506 -13.938642 6.293991 0.000000 0.000000 0.000000 15.591099 -15.335164 -78.503516 103.671866 -59.281816 71.811674 16.474373 -33.197754 4.040633 0.000000 0.000000 0.000000 -7.125000 0.000000 0.000000 -7.666512 25.757492 -3.603609 0.000000 0.000000 0.000000 -122.675043 -60.336003 19.732768 -115.753205 -57.327937 -82.101456 89.085463 -144.607399 21.052332 0.000000 0.000000 0.000000 7.125000 0.000000 0.000000 56.829650 35.612339 26.241470
